<svg xmlns="http://www.w3.org/2000/svg" width="18" height="19" viewBox="0 0 18 19" fill="none">
  <path fill-rule="evenodd" clip-rule="evenodd" d="M12.379 2.4083C12.8199 1.96742 13.5336 1.96742 13.9744 2.4083L16.6721 5.10595C17.113 5.54683 17.113 6.2605 16.6721 6.70139L7.67621 15.6973C7.59359 15.7799 7.4864 15.8335 7.37074 15.85L3.25309 16.4382C3.08483 16.4623 2.91507 16.4057 2.79489 16.2855C2.6747 16.1653 2.61811 15.9956 2.64215 15.8273L3.23039 11.7097C3.24691 11.594 3.3005 11.4868 3.38312 11.4042L12.379 2.4083ZM13.2108 3.17197C13.1917 3.15286 13.1618 3.15286 13.1427 3.17197L4.27408 12.0406L3.81312 15.2673L7.03981 14.8063L15.9084 5.93771C15.9275 5.91859 15.9275 5.88874 15.9084 5.86962L13.2108 3.17197Z" fill="#9FA6B2"/>
  <path fill-rule="evenodd" clip-rule="evenodd" d="M15.3225 3.75704C15.5333 3.96792 15.5333 4.30983 15.3225 4.52071L8.26363 11.5795C8.05275 11.7904 7.71084 11.7904 7.49996 11.5795C7.28908 11.3687 7.28908 11.0267 7.49996 10.8159L14.5588 3.75704C14.7697 3.54616 15.1116 3.54616 15.3225 3.75704Z" fill="#9FA6B2"/>
  <path fill-rule="evenodd" clip-rule="evenodd" d="M3.38277 11.4043C3.59365 11.1934 3.93556 11.1934 4.14645 11.4043L7.67586 14.9337C7.88674 15.1446 7.88674 15.4865 7.67586 15.6973C7.46498 15.9082 7.12307 15.9082 6.91218 15.6973L3.38277 12.1679C3.17189 11.957 3.17189 11.6151 3.38277 11.4043Z" fill="#9FA6B2"/>
</svg>