<svg xmlns="http://www.w3.org/2000/svg" width="18" height="19" viewBox="0 0 18 19" fill="none">
  <g clip-path="url(#clip0_823_19550)">
    <path fill-rule="evenodd" clip-rule="evenodd" d="M7.39462 11.045C7.13101 10.7813 7.13101 10.354 7.39462 10.0904L13.8291 3.52012H10.3676C9.99476 3.52012 9.69255 3.21792 9.69255 2.84512C9.69255 2.47233 9.99476 2.17012 10.3676 2.17012H15.4587C15.8315 2.17012 16.1337 2.47233 16.1337 2.84512L16.1337 7.93629C16.1337 8.30909 15.8315 8.61129 15.4587 8.61129C15.0859 8.61129 14.7837 8.30908 14.7837 7.93629L14.7837 4.47472L8.34921 11.045C8.08561 11.3086 7.65822 11.3086 7.39462 11.045Z" fill="#9FA6B2"/>
    <path fill-rule="evenodd" clip-rule="evenodd" d="M4.50039 4.77505C3.87907 4.77505 3.37539 5.27873 3.37539 5.90005V14C3.37539 14.6214 3.87907 15.125 4.50039 15.125H12.6004C13.2217 15.125 13.7254 14.6214 13.7254 14V10.85C13.7254 10.4773 14.0276 10.175 14.4004 10.175C14.7732 10.175 15.0754 10.4773 15.0754 10.85V14C15.0754 15.367 13.9673 16.475 12.6004 16.475H4.50039C3.13349 16.475 2.02539 15.367 2.02539 14V5.90005C2.02539 4.53314 3.13349 3.42505 4.50039 3.42505H7.65039C8.02318 3.42505 8.32539 3.72726 8.32539 4.10005C8.32539 4.47284 8.02318 4.77505 7.65039 4.77505H4.50039Z" fill="#9FA6B2"/>
  </g>
  <defs>
    <clipPath id="clip0_823_19550">
      <rect width="18" height="18" fill="white" transform="translate(0 0.5)"/>
    </clipPath>
  </defs>
</svg>