<svg xmlns="http://www.w3.org/2000/svg" width="18" height="18" viewBox="0 0 18 18" fill="none">
  <g clip-path="url(#clip0_827_6417)">
    <path fill-rule="evenodd" clip-rule="evenodd" d="M7.39462 10.545C7.13101 10.2813 7.13101 9.85396 7.39462 9.59036L13.8291 3.02012H10.3676C9.99476 3.02012 9.69255 2.71792 9.69255 2.34512C9.69255 1.97233 9.99476 1.67012 10.3676 1.67012H15.4587C15.8315 1.67012 16.1337 1.97233 16.1337 2.34512L16.1337 7.43629C16.1337 7.80909 15.8315 8.11129 15.4587 8.11129C15.0859 8.11129 14.7837 7.80908 14.7837 7.43629L14.7837 3.97472L8.34921 10.545C8.08561 10.8086 7.65822 10.8086 7.39462 10.545Z" fill="#9FA6B2"/>
    <path fill-rule="evenodd" clip-rule="evenodd" d="M4.50039 4.27578C3.87907 4.27578 3.37539 4.77946 3.37539 5.40078V13.5008C3.37539 14.1221 3.87907 14.6258 4.50039 14.6258H12.6004C13.2217 14.6258 13.7254 14.1221 13.7254 13.5008V10.3508C13.7254 9.97799 14.0276 9.67578 14.4004 9.67578C14.7732 9.67578 15.0754 9.97799 15.0754 10.3508V13.5008C15.0754 14.8677 13.9673 15.9758 12.6004 15.9758H4.50039C3.13349 15.9758 2.02539 14.8677 2.02539 13.5008V5.40078C2.02539 4.03388 3.13349 2.92578 4.50039 2.92578H7.65039C8.02318 2.92578 8.32539 3.22799 8.32539 3.60078C8.32539 3.97357 8.02318 4.27578 7.65039 4.27578H4.50039Z" fill="#9FA6B2"/>
  </g>
  <defs>
    <clipPath id="clip0_827_6417">
      <rect width="18" height="18" fill="white"/>
    </clipPath>
  </defs>
</svg>