<svg xmlns="http://www.w3.org/2000/svg" width="31" height="30" viewBox="0 0 31 30" fill="none">
  <g clip-path="url(#clip0_823_13027)">
    <path d="M15.4099 2.25867C15.4458 2.18174 15.5552 2.18174 15.5911 2.25867L19.0608 9.68965C19.2162 10.0225 19.5275 10.2557 19.8905 10.3115L27.7019 11.5112C27.7822 11.5235 27.815 11.6214 27.7585 11.6797L22.065 17.5456C21.8228 17.7951 21.7128 18.1446 21.7686 18.4879L23.1068 26.7349C23.1202 26.8174 23.0325 26.8789 22.9595 26.8384L16.0348 22.9904L15.7919 23.4275L16.0348 22.9904C15.7025 22.8058 15.2984 22.8058 14.9662 22.9904L15.209 23.4275L14.9662 22.9904L8.0414 26.8384C7.96838 26.8789 7.88074 26.8174 7.89412 26.7349L9.23237 18.4879C9.28808 18.1446 9.17814 17.7951 8.9359 17.5456L3.24245 11.6797C3.18587 11.6214 3.21874 11.5235 3.29903 11.5112L11.1104 10.3115C11.4734 10.2557 11.7847 10.0225 11.9401 9.68965L15.4099 2.25867Z" fill="black" fill-opacity="0.2" stroke="white"/>
  </g>
  <defs>
    <clipPath id="clip0_823_13027">
      <rect width="30" height="30" fill="white" transform="translate(0.5)"/>
    </clipPath>
  </defs>
</svg>